<svg width="744" height="474" viewBox="0 0 744 474" fill="none" xmlns="http://www.w3.org/2000/svg">
  <path opacity="0.34" d="M124.881 239.897L157.923 233.567L202.864 208.498C207.578 205.869 207.28 199.014 202.36 196.797L179.295 186.445L124.881 239.897Z" fill="#ABABAB"/>
  <path d="M169.616 83.9047L169.433 83.7904L168.998 186.148C168.998 186.582 168.77 186.993 168.381 187.199L101.976 225.134C101.152 225.591 100.58 119.326 100.58 119.326C100.58 118.892 100.809 118.481 101.198 118.275L167.328 80.5225C167.671 80.3397 168.152 80.1569 168.518 80.3168L170.715 81.4595L169.616 83.9047Z" fill="#0BAF1B"/>
  <path d="M103.143 119.395L169.548 81.4595C170.371 81.0025 171.378 81.5738 171.378 82.5336L170.966 187.29C170.966 187.724 170.737 188.136 170.348 188.342L103.944 226.277C103.624 225.729 103.051 225.02 102.113 225.203L102.548 120.469C102.525 120.012 102.777 119.624 103.143 119.395Z" fill="#00C213"/>
  <path d="M188.472 94.7141C176.436 92.4517 173.644 91.1948 170.029 85.6873L107.285 121.566C107.811 125.702 112.205 131.21 127.193 130.593L188.472 94.7141Z" fill="#FFFAFA"/>
  <path d="M191.789 95.1482L188.677 93.4342C188.311 93.1143 187.67 93.1829 187.189 93.4571L121.54 130.935C121.151 131.141 120.922 131.553 120.922 131.987L120.487 236.721C120.487 237.657 121.494 238.252 122.318 237.795L188.722 199.859C189.111 199.653 189.34 199.242 189.34 198.808L189.752 98.3247L191.514 98.1419L191.789 95.1482Z" fill="#00C213"/>
  <path d="M123.897 133.564C111.563 134.432 104.699 127.325 100.648 118.915L101.678 226.414C101.884 238.983 121.998 241.862 123.897 240.011V133.564Z" fill="#00C213"/>
  <path d="M124.332 133.152L190.736 95.2169C191.56 94.7598 192.567 95.3311 192.567 96.2909L192.132 201.025C192.132 201.459 191.903 201.87 191.514 202.076L124.881 239.874C124.057 240.331 123.279 239.874 123.279 238.937L123.714 134.204C123.714 133.769 123.943 133.381 124.332 133.152Z" fill="#01E45C"/>
  <path opacity="0.34" d="M178.288 264.784L210.346 258.293L250.962 233.384C255.219 230.779 253.662 224.06 248.308 221.958L223.229 212.062L178.288 264.784Z" fill="#ABABAB"/>
  <path d="M194.809 111.899L194.603 111.785L212.84 211.834C212.909 212.268 212.749 212.657 212.406 212.862L152.545 250.546C151.813 251.003 131.837 147.138 131.837 147.138C131.768 146.704 131.928 146.315 132.272 146.11L191.857 108.586C192.155 108.403 192.612 108.22 193.001 108.38L195.427 109.477L194.809 111.899Z" fill="#7C64BA"/>
  <path d="M134.468 147.229L194.328 109.545C195.06 109.088 196.204 109.66 196.365 110.574L215.037 212.954C215.105 213.388 214.945 213.776 214.602 213.982L154.742 251.666C154.307 251.118 153.62 250.455 152.705 250.638L134.033 148.258C133.965 147.824 134.125 147.435 134.468 147.229Z" fill="#504078"/>
  <path d="M215.747 122.297C203.253 120.195 200.187 118.984 195.565 113.659L139.022 149.309C140.304 153.354 145.727 158.701 160.692 157.947L215.747 122.297Z" fill="#FFFAFA"/>
  <path d="M219.156 122.686L215.724 121.04C215.289 120.743 214.671 120.789 214.236 121.063L155.063 158.336C154.719 158.542 154.559 158.953 154.628 159.364L173.3 261.744C173.46 262.658 174.604 263.23 175.336 262.772L235.197 225.088C235.54 224.883 235.7 224.471 235.631 224.06L217.714 125.817L219.454 125.611L219.156 122.686Z" fill="#504078"/>
  <path d="M157.923 160.872C145.681 161.832 137.489 154.954 131.883 146.772L152.523 251.849C155.017 264.144 175.771 266.772 177.35 264.943L157.923 160.872Z" fill="#8B73CB"/>
  <path d="M158.266 160.461L218.126 122.777C218.858 122.32 220.002 122.891 220.162 123.805L238.834 226.185C238.903 226.62 238.743 227.008 238.4 227.214L178.288 264.784C177.556 265.241 176.663 264.806 176.503 263.892L157.831 161.512C157.762 161.078 157.923 160.667 158.266 160.461Z" fill="#7C64BA"/>
  <path d="M160.531 164.186L178.517 260.556" stroke="#433878" stroke-width="2.576" stroke-miterlimit="10" stroke-linecap="round" stroke-linejoin="round"/>
  <path d="M210.14 166.951L186.48 180C182.087 182.423 177.19 180.617 175.611 175.978L175.039 174.31C173.46 169.671 175.771 163.889 180.165 161.444L203.825 148.395C208.218 145.973 213.115 147.778 214.694 152.417L215.266 154.085C216.845 158.724 214.534 164.506 210.14 166.951Z" stroke="#FFFAFA" stroke-width="3.7942" stroke-miterlimit="10"/>
  <path d="M100.924 174.675C106.416 189.05 115.477 197.688 123.257 201.824V188.364C115.317 183.588 107.857 173.464 100.924 157.993V174.675Z" fill="#FFFAFA"/>
  <path d="M216.753 279.432L216.822 270.017L224.464 276.461L226.112 272.691L417.752 162.198C420.063 160.873 424.639 161.033 427.316 162.564L510.334 210.143V208.817L522.942 214.942L524.704 214.234L524.475 220.038C524.292 221.295 523.788 221.821 523.01 222.278L323.591 337.569C321.28 338.895 317.206 338.895 314.552 337.341L218.995 282.312C217.531 281.466 216.799 280.438 216.799 279.409L216.753 279.432Z" fill="#2B2B2B"/>
  <path d="M323.66 329.822L523.08 214.828C525.391 213.502 525.094 211.148 522.439 209.617L426.883 154.52C424.228 152.988 420.155 152.806 417.844 154.154L218.424 269.149C216.113 270.474 216.411 272.828 219.065 274.359L314.622 329.457C317.299 330.988 321.349 331.148 323.66 329.822Z" fill="#FFFAFA"/>
  <path d="M196.754 132.375C194.1 133.906 192.315 137.426 192.773 140.237L213.458 267.983C213.916 270.794 216.433 271.845 219.087 270.314L414.983 157.353C417.638 155.822 419.423 152.303 418.965 149.492L398.279 21.7455C397.822 18.9347 395.305 17.8834 392.65 19.4146L196.754 132.375Z" fill="#FFFAFA"/>
  <path d="M184.901 121.109C184.901 121.04 184.901 120.972 184.901 120.88V120.858V120.835C184.901 120.789 184.901 120.743 184.924 120.675C184.924 120.606 184.947 120.538 184.947 120.469C184.947 120.446 184.947 120.4 184.97 120.378C184.97 120.355 184.97 120.355 184.97 120.332C184.97 120.309 184.97 120.286 184.97 120.263C184.97 120.195 184.993 120.126 185.016 120.058C185.039 119.989 185.039 119.921 185.061 119.852C185.084 119.783 185.084 119.715 185.107 119.646C185.13 119.578 185.153 119.509 185.153 119.441C185.153 119.418 185.153 119.395 185.176 119.395C185.176 119.372 185.176 119.372 185.199 119.349C185.199 119.304 185.222 119.281 185.222 119.235C185.244 119.166 185.267 119.098 185.29 119.029C185.313 118.984 185.336 118.938 185.336 118.869V118.846V118.824C185.359 118.755 185.382 118.686 185.405 118.641C185.428 118.572 185.45 118.527 185.473 118.458C185.473 118.435 185.496 118.412 185.496 118.389C185.496 118.389 185.496 118.367 185.519 118.367C185.519 118.344 185.542 118.321 185.542 118.298C185.565 118.229 185.588 118.161 185.633 118.115C185.679 118.069 185.702 117.978 185.725 117.932V117.91C185.725 117.91 185.725 117.887 185.748 117.887C185.771 117.818 185.817 117.75 185.839 117.681C185.862 117.612 185.908 117.567 185.931 117.498C185.954 117.452 185.977 117.407 186 117.384C186 117.361 186.022 117.338 186.022 117.338C186.091 117.247 186.137 117.155 186.206 117.041C186.228 117.018 186.251 116.973 186.274 116.95C186.274 116.95 186.274 116.95 186.274 116.927C186.343 116.813 186.434 116.698 186.526 116.584C186.549 116.561 186.549 116.561 186.572 116.538C186.572 116.516 186.595 116.515 186.595 116.493C186.617 116.447 186.663 116.424 186.686 116.378C186.732 116.31 186.778 116.241 186.846 116.196C186.869 116.173 186.892 116.15 186.915 116.127C186.915 116.104 186.938 116.104 186.938 116.081C186.961 116.058 186.984 116.036 187.006 116.013C187.052 115.944 187.121 115.898 187.167 115.83C187.212 115.784 187.258 115.739 187.281 115.693L187.304 115.67L187.327 115.647C187.373 115.579 187.441 115.533 187.51 115.487C187.578 115.419 187.624 115.373 187.693 115.327C187.762 115.281 187.807 115.213 187.876 115.167C187.945 115.121 188.013 115.053 188.059 115.007L188.082 114.984L188.105 114.962C188.15 114.916 188.196 114.893 188.242 114.847C188.311 114.802 188.379 114.756 188.448 114.71C188.471 114.687 188.494 114.687 188.494 114.664C188.494 114.664 188.517 114.664 188.517 114.642C188.562 114.619 188.585 114.596 188.631 114.573C188.7 114.527 188.768 114.482 188.837 114.459C188.86 114.459 193.574 111.739 193.574 111.716L199.386 115.236C199.386 115.236 194.397 117.841 194.329 117.887C194.26 117.932 194.191 117.978 194.123 118.024C194.054 118.069 193.985 118.115 193.917 118.161C193.848 118.207 193.78 118.252 193.734 118.298C193.711 118.321 193.688 118.344 193.665 118.367C193.574 118.458 193.459 118.527 193.368 118.618C193.276 118.709 193.162 118.801 193.07 118.892C193.047 118.915 193.047 118.915 193.024 118.938C192.933 119.029 192.841 119.121 192.75 119.212C192.727 119.235 192.727 119.235 192.704 119.258C192.613 119.349 192.544 119.441 192.452 119.555C192.429 119.578 192.429 119.601 192.407 119.601C192.338 119.692 192.246 119.806 192.178 119.898C192.132 119.943 192.109 120.012 192.063 120.058C192.018 120.126 191.972 120.195 191.926 120.263C191.88 120.332 191.835 120.423 191.789 120.492C191.766 120.538 191.72 120.583 191.697 120.652C191.674 120.698 191.651 120.743 191.629 120.789C191.583 120.88 191.537 120.949 191.491 121.04C191.468 121.063 191.468 121.086 191.446 121.109C191.377 121.223 191.331 121.337 191.285 121.452C191.285 121.452 191.285 121.475 191.262 121.475C191.217 121.589 191.148 121.726 191.102 121.84C191.102 121.863 191.102 121.863 191.079 121.886C191.034 122 190.988 122.137 190.942 122.252C190.942 122.274 190.942 122.274 190.919 122.297C190.873 122.411 190.828 122.549 190.805 122.663C190.805 122.686 190.805 122.709 190.782 122.709C190.736 122.823 190.713 122.96 190.69 123.074C190.69 123.097 190.69 123.12 190.668 123.12C190.645 123.234 190.622 123.371 190.599 123.486C190.599 123.508 190.599 123.531 190.599 123.531C190.576 123.646 190.553 123.783 190.553 123.897C190.553 123.92 190.553 123.92 190.553 123.943C190.53 124.057 190.53 124.194 190.53 124.308C190.53 124.377 190.53 124.423 190.53 124.491C190.53 124.56 190.53 124.628 190.53 124.697C190.53 124.765 190.53 124.857 190.53 124.925C190.53 124.994 190.53 125.085 190.553 125.154C190.553 125.245 190.576 125.314 190.576 125.405C190.576 125.474 190.599 125.519 190.599 125.588C190.599 125.588 190.622 125.702 190.645 125.931L191.148 129.084C191.446 128.924 192.063 128.559 192.086 128.536L197.99 131.735C197.99 131.735 196.571 132.558 196.502 132.604C196.434 132.649 196.365 132.695 196.297 132.741C196.228 132.787 196.159 132.832 196.091 132.878C196.022 132.924 195.953 132.969 195.908 133.015C195.885 133.038 195.862 133.061 195.839 133.084C195.747 133.175 195.633 133.244 195.541 133.335C195.45 133.426 195.336 133.518 195.244 133.609C195.221 133.632 195.221 133.632 195.198 133.655C195.107 133.746 195.015 133.838 194.924 133.929C194.901 133.952 194.901 133.952 194.878 133.975C194.786 134.066 194.718 134.158 194.626 134.272C194.603 134.295 194.603 134.318 194.58 134.318C194.512 134.409 194.42 134.523 194.352 134.615C194.306 134.661 194.283 134.729 194.237 134.775C194.191 134.843 194.146 134.912 194.1 134.98C194.054 135.049 194.008 135.14 193.963 135.209C193.94 135.255 193.894 135.3 193.871 135.369C193.848 135.415 193.825 135.46 193.802 135.506C193.757 135.597 193.711 135.666 193.665 135.757C193.642 135.78 193.642 135.803 193.619 135.826C193.551 135.94 193.505 136.055 193.459 136.169C193.459 136.169 193.459 136.192 193.436 136.192C193.39 136.306 193.322 136.443 193.276 136.557C193.276 136.58 193.276 136.58 193.253 136.603C193.207 136.717 193.162 136.854 193.116 136.969C193.116 136.991 193.116 136.991 193.093 137.014C193.047 137.129 193.002 137.266 192.979 137.38C192.979 137.403 192.979 137.426 192.956 137.426C192.91 137.54 192.887 137.677 192.864 137.791C192.864 137.814 192.864 137.837 192.841 137.837C192.818 137.951 192.796 138.088 192.773 138.203C192.773 138.226 192.773 138.248 192.773 138.248C192.75 138.363 192.727 138.5 192.727 138.614C192.727 138.637 192.727 138.637 192.727 138.66C192.727 138.705 192.727 138.751 192.704 138.82L211.01 251.826C211.101 252.42 213.435 256.26 212.909 255.94L211.261 254.546L213.206 266.566C213.298 267.16 215.632 271 215.106 270.68L209.637 265.903C208.447 264.898 207.669 263.527 207.417 261.996L187.395 138.454C187.304 137.86 187.144 136.946 187.144 136.946C187.144 136.877 187.121 136.832 187.121 136.763C187.121 136.717 187.121 136.649 187.098 136.603V136.58C187.098 136.557 187.098 136.534 187.098 136.534C187.098 136.466 187.098 136.374 187.075 136.306C187.075 136.237 187.075 136.192 187.075 136.123V136.1V136.077C187.075 136.009 187.075 135.94 187.075 135.872C187.075 135.803 187.075 135.735 187.075 135.643V135.62V135.597C187.075 135.552 187.075 135.506 187.075 135.46L185.176 123.737C185.084 123.143 184.924 122.229 184.924 122.229C184.924 122.16 184.901 122.114 184.901 122.046C184.901 122 184.901 121.932 184.878 121.886V121.863C184.878 121.84 184.878 121.817 184.878 121.817C184.878 121.749 184.878 121.657 184.855 121.589C184.855 121.52 184.855 121.475 184.855 121.406V121.383V121.36C184.901 121.269 184.901 121.177 184.901 121.109Z" fill="#FFFAFA"/>
  <path d="M189.981 115.03L194.26 117.498C194.488 117.635 194.763 117.635 194.969 117.498L389.446 5.36021L390.522 4.74319C390.567 4.72034 390.636 4.67462 390.682 4.65177C390.75 4.60607 390.819 4.58321 390.888 4.53751C391.048 4.4461 391.208 4.37754 391.368 4.33184C391.391 4.33184 391.391 4.33183 391.414 4.30898C391.574 4.26328 391.711 4.19472 391.872 4.17187C391.895 4.17187 391.895 4.17187 391.917 4.17187C392.078 4.12617 392.215 4.10331 392.375 4.08046H392.398C392.535 4.0576 392.673 4.05761 392.81 4.05761C392.833 4.05761 392.856 4.05761 392.878 4.05761C393.016 4.05761 393.153 4.0576 393.267 4.08046C393.313 4.08046 393.336 4.08046 393.382 4.10331C393.473 4.12616 393.565 4.12616 393.656 4.14902C393.725 4.17187 393.817 4.19472 393.885 4.21757C393.954 4.24043 394 4.26328 394.068 4.28613C394.229 4.35469 394.389 4.42325 394.526 4.49181L388.828 1.17817C388.691 1.08676 388.531 1.0182 388.371 0.972498C388.348 0.972498 388.348 0.949644 388.325 0.949644H388.302C388.188 0.903939 388.05 0.881086 387.913 0.835381H387.89C387.844 0.835381 387.821 0.83538 387.776 0.812527C387.707 0.812527 387.638 0.789673 387.57 0.789673C387.547 0.789673 387.547 0.789673 387.524 0.789673C387.478 0.789673 387.432 0.789673 387.387 0.789673C387.341 0.789673 387.295 0.789673 387.272 0.789673H387.249C387.158 0.789673 387.066 0.789673 386.975 0.789673H386.952C386.883 0.789673 386.792 0.812527 386.723 0.812527C386.7 0.812527 386.677 0.812527 386.654 0.812527C386.632 0.812527 386.609 0.812528 386.563 0.835381C386.54 0.835381 386.494 0.835382 386.471 0.858235C386.403 0.881088 386.334 0.881084 386.288 0.903936H386.265C386.265 0.903936 386.265 0.903936 386.243 0.903936C386.174 0.926789 386.082 0.949646 386.014 0.972498C385.945 0.995351 385.876 1.0182 385.808 1.04105C385.739 1.06391 385.671 1.08676 385.602 1.10961C385.533 1.13246 385.465 1.15532 385.396 1.20103C385.327 1.22388 385.259 1.26958 385.19 1.29243C385.121 1.31529 385.053 1.36099 384.984 1.4067C384.961 1.42955 384.687 1.56666 384.481 1.70378L384.183 1.86375C384.183 1.86375 384.183 1.86375 384.16 1.86375L190.003 113.819C189.5 114.047 189.5 114.733 189.981 115.03Z" fill="#EDE1E1"/>
  <path d="M194.603 117.498C191.949 119.029 190.164 122.549 190.621 125.36L211.307 253.106C211.765 255.917 214.282 256.968 216.936 255.437L412.832 142.476C415.486 140.945 417.271 137.426 416.813 134.615L396.128 6.86846C395.67 4.05759 393.153 3.00636 390.499 4.53749L194.603 117.498Z" fill="#2B2B2B"/>
  <path d="M201.605 125.725C199.088 127.142 197.372 130.227 197.784 132.581L216.501 239.76C216.913 242.114 219.293 242.891 221.81 241.451L407.615 136.329C410.132 134.912 411.848 131.827 411.436 129.473L392.719 22.2941C392.307 19.9402 389.927 19.1633 387.41 20.603L201.605 125.725Z" fill="#545454"/>
  <path d="M419.994 153.925L218.973 269.788" stroke="#463757" stroke-width="2.4286" stroke-miterlimit="10" stroke-linecap="round" stroke-linejoin="round"/>
  <path d="M743.551 234.71L738.951 291.361L436.927 474H358.166L743.551 234.71Z" fill="#EAEAEA"/>
  <path opacity="0.34" d="M418.485 222.849C418.874 220.404 423.793 218.416 430.223 216.885C428.004 216.176 426.425 214.759 426.127 212.268C426.127 212.268 429.972 210.989 434.777 209.777C433.816 208.978 433.198 207.858 433.015 206.372C433.015 206.372 445.349 202.259 453.403 201.916C456.195 201.665 462.556 201.413 470.313 203.333C478.116 205.275 480.77 208.566 498.07 219.078L589.37 239.326L577.357 283.957L487.04 244.559L475.782 245.976L454.616 240.743C454.616 240.743 442.717 241.588 442.008 236.629C441.207 231.099 455.119 233.361 455.119 233.361L465.348 234.71C468.277 234.687 469.604 234.733 470.084 231.922C470.382 230.253 468.254 229.111 468.185 228.791C468.025 228.06 443.449 223.923 443.449 223.923C443.449 223.923 416.906 232.607 418.485 222.849Z" fill="#DFDFDF"/>
  <path opacity="0.34" d="M452.831 369.495C400.408 363.05 307.895 302.445 307.895 302.445L334.049 281.101L445.212 329.023L452.831 369.495Z" fill="#DFDFDF"/>
  <path d="M510.518 357.543C497.658 368.992 493.836 376.51 474.981 374.042C450.429 370.82 368.144 325.595 346.566 308.684C338.122 302.056 344.804 280.369 354.849 284.277C378.83 293.624 447.683 323.218 470.199 326.692C472.167 326.989 491.068 325.595 491.983 325.069C493.722 324.109 528.32 341.706 510.518 357.543Z" fill="#FCE0E0"/>
  <path d="M644.402 191.632L612.779 133.267C608.294 120.629 603.878 110.483 591.246 114.984L587.494 116.31C574.84 120.789 562.094 135.141 566.579 147.778L592.207 209.892C596.715 222.506 648.887 204.27 644.402 191.632Z" fill="#FCE0E0"/>
  <path d="M443.449 208.84C443.449 208.84 416.906 217.547 418.485 207.789C418.874 205.344 423.793 203.356 430.223 201.825C428.004 201.116 426.425 199.699 426.127 197.208C426.127 197.208 429.972 195.929 434.777 194.717C433.816 193.918 433.198 192.798 433.015 191.312C433.015 191.312 445.349 187.199 453.403 186.856C456.195 186.605 462.556 186.353 470.313 188.273C478.299 190.261 480.908 193.666 499.397 204.795C499.397 204.795 498.71 205.413 497.635 206.281C501.067 207.949 503.218 211.583 502.898 215.513L502.852 215.97C502.28 222.758 497.04 228.22 490.29 229.065L475.737 230.893L454.57 225.66C454.57 225.66 442.671 226.506 441.962 221.547C441.161 216.016 455.074 218.279 455.074 218.279L465.302 219.627C468.231 219.604 469.558 219.65 470.039 216.839C470.336 215.171 468.208 214.028 468.14 213.708C468.025 212.954 443.449 208.84 443.449 208.84Z" fill="#FCE0E0"/>
  <path d="M430.224 201.802L444.891 198.145L470.222 205.984" stroke="#F2C8C8" stroke-width="3.6829" stroke-miterlimit="10"/>
  <path d="M434.777 194.717C435.624 194.009 449.651 190.398 449.651 190.398L474.982 198.237" stroke="#F2C8C8" stroke-width="3.6829" stroke-miterlimit="10"/>
  <path d="M498.092 204.018L589.393 224.266L577.357 268.874L484.065 228.174L498.092 204.018Z" fill="#FCE0E0"/>
  <path d="M555.779 221.135C568.365 215.49 579.142 208.863 589.073 201.87C646.142 195.357 642.938 168.323 642.938 168.323C669.779 157.719 689.366 175.75 703.851 216.93C710.739 236.515 729.067 330.531 729.067 330.531C729.067 330.554 740.234 458.186 728.884 462.231L573.65 471.623C573.65 471.623 578.318 424.455 575.366 391.113C573.856 373.974 551.157 334.004 544.452 322.829C543.995 322.075 536.924 333.57 536.695 332.976C532.485 322.03 533.675 311.152 539.167 299.725C528.687 277.193 517.634 238.275 555.779 221.135Z" fill="#EEEEEE"/>
  <path d="M589.621 282.54L513.286 358.48C488.573 376.556 455.554 335.947 474.706 319.402L536.717 234.71C548.525 220.244 571.293 219.947 580.812 230.573C590.743 241.634 601.085 269.948 589.621 282.54Z" fill="#EEEEEE"/>
  <path d="M302.677 248.17C302.609 248.238 301.213 249.884 301.991 252.329C301.991 252.352 301.991 252.375 302.014 252.375C303.432 256.762 310.686 260.602 323.615 263.847C324.05 264.052 325.514 265.104 327.528 266.566C323.134 265.812 317.894 266.338 314.279 268.12C299.932 275.205 294.852 281.26 294.646 281.512L294.371 281.855L294.44 282.289C294.463 282.449 294.737 283.934 296.545 284.757C300.046 286.357 306.659 284.117 316.178 278.13C318.741 276.53 322.036 276.324 326.017 277.513C323.386 277.193 320.823 277.604 318.741 278.678C312.242 282.083 300.229 292.001 299.726 292.435L299.245 292.824L299.382 293.418C299.405 293.578 299.794 294.904 301.51 295.566C302.105 295.795 302.792 295.909 303.57 295.932C303.364 296.046 303.249 296.115 303.249 296.115L302.38 296.617L302.906 297.486C306.75 303.885 313.844 300 319.038 297.166C319.702 296.8 320.366 296.435 320.983 296.115C323.409 294.835 327.116 293.921 329.518 295.543C336.177 300.023 340.754 303.77 342.401 306.124C342.813 306.696 347.184 310.74 347.756 311.38C358.694 323.424 373.59 309.872 370.135 293.738C357.206 281.055 341.372 259.756 331.097 256.762L330.96 256.671L303.112 247.599L302.677 248.17Z" fill="#FCE0E0"/>
  <path d="M304.783 295.543L326.613 284.209L337.871 290.219" stroke="#F2C8C8" stroke-width="3.6829" stroke-miterlimit="10"/>
  <path d="M325.972 277.536L334.049 281.1" stroke="#F2C8C8" stroke-width="3.6829" stroke-miterlimit="10"/>
  <path d="M568.021 215.079C617.951 205.161 648.682 238.457 653.052 165.649C653.052 165.649 639.392 164.278 635.181 171.591C627.813 184.434 627.287 191.495 606.51 191.335C595.755 191.267 581.98 190.764 578.845 196.043L568.021 215.079Z" fill="white"/>
  <path d="M538 333.456L513.287 358.023C504.317 364.581 494.249 363.416 485.988 358.457C502.944 357.314 511.365 345.842 530.952 326.852C534.133 323.789 538 333.456 538 333.456Z" fill="#D9D9D9"/>
  <path d="M533.331 74.6952C533.331 74.6952 522.142 88.5668 524.979 103.878C525.528 106.803 527.038 114.047 527.862 117.407C529.807 125.428 527.862 125.862 525.482 133.975C525.208 134.889 523.217 137.86 520.906 143.733C520.494 144.761 520.517 145.927 520.975 146.955C521.936 149.126 524.224 152.349 529.533 151.549C531.844 151.206 532.278 154.748 533.514 159.821C535.459 167.843 538.891 176.001 543.262 178.675C551.66 183.84 580.949 173.167 580.949 173.167L589.484 120.72L533.331 74.6952Z" fill="#FCE0E0"/>
  <path d="M582.849 187.107C582.849 187.107 587.815 173.419 585.275 167.134C583.375 170.265 581.018 173.007 577.7 174.676L582.849 187.107Z" fill="#F2C8C8"/>
  <path d="M546.123 327.674C546.123 327.674 572.644 372.923 574.314 386.063C575.984 399.203 573.696 471.623 573.696 471.623L589.416 471.509L611.749 403.66L575.733 295.498C573.49 288.756 564.086 298.949 558.823 303.748L529.693 327.949L538 333.479L546.123 327.674Z" fill="#D9D9D9"/>
  <path d="M534.613 146.293C534.613 146.293 535.116 149.126 532.896 150.909" stroke="#F2C8C8" stroke-width="3.9584" stroke-miterlimit="10" stroke-linecap="round" stroke-linejoin="round"/>
  <path d="M576.076 293.098C576.076 293.098 608.546 248.513 568.021 216.93" stroke="#D9D9D9" stroke-width="4.8571" stroke-miterlimit="10" stroke-linecap="round" stroke-linejoin="round"/>
  <path d="M616.898 145.493C621.405 144.03 624.563 139.963 624.815 135.232C625.57 121.406 625.959 92.566 617.859 74.6267C606.898 50.3572 546.466 84.2477 546.466 84.2477L585.572 147.115C586.212 148.144 587.334 149.172 588.707 150.063C594.45 153.857 601.91 153.925 607.928 150.543L616.898 145.493Z" fill="#2B2B2B"/>
  <path d="M525.758 108.037C525.895 109.614 504.912 68.9592 546.672 52.9166C613.695 27.1845 620.033 82.6022 620.033 82.6022C620.033 82.6022 594.954 106.598 558.525 93.4801C549.876 100.404 531.204 101.021 525.781 96.5652C525.804 96.5652 525.003 99.0561 525.758 108.037Z" fill="#2B2B2B"/>
  <path d="M583.093 143.099C588.708 142.618 592.694 135.642 591.996 127.519C591.298 119.396 586.18 113.201 580.564 113.683C574.949 114.164 570.962 121.139 571.661 129.262C572.359 137.386 577.477 143.58 583.093 143.099Z" fill="#FCE0E0"/>
  <path d="M598.341 432.477L574.726 426.992L574.657 390.702L465.852 456.495L531.249 474H589.394L598.341 432.477Z" fill="#2A2A2A"/>
  <path d="M653.601 434.122C619.896 440.315 585.663 447.194 567.357 434.122C558.937 428.477 566.007 421.69 571.591 424.547C594.771 433.322 622.092 427.449 653.578 423.107C656.324 423.107 658.567 425.347 658.567 428.089V429.117C658.59 431.905 656.347 434.122 653.601 434.122Z" fill="black"/>
  <path d="M518.916 352.789C518.916 352.789 487.979 328.931 484.066 314.054C480.176 299.177 469.993 316.065 469.993 316.065C469.993 316.065 462.144 337.661 473.471 349.636C484.821 361.611 497.543 382.429 518.916 352.789Z" fill="#D9D9D9"/>
  <path d="M210.484 401.877L293.936 353.772V348.882L176.687 286.174L93.2578 329.411V334.279L210.484 401.877Z" fill="#2B2B2B"/>
  <path d="M210.484 397.009L293.936 348.882L176.687 281.283L93.2578 329.411L210.484 397.009Z" fill="#545454"/>
  <path d="M121.472 453.615L207.509 404.002V398.975L86.6217 334.324L0.583984 378.887V383.938L121.472 453.615Z" fill="#2B2B2B"/>
  <path d="M121.472 448.588L207.509 398.975L86.6217 329.297L0.583984 378.887L121.472 448.588Z" fill="#545454"/>
  <path d="M89.1391 338.671H92.457V336.454H89.1391V338.671Z" fill="#DD4078"/>
  <path d="M124.08 441.526C124.08 441.526 161.767 420.959 197.67 398.243C197.807 398.152 197.67 390.999 197.67 390.999C179.341 379.39 91.3584 335.421 91.3584 335.421L16.9678 378.636L124.08 441.526Z" fill="#DDDDDD"/>
  <path d="M124.08 434.282C124.08 434.282 161.767 413.715 197.67 390.999C198.814 390.153 91.3583 328.2 91.3583 328.2L16.9678 371.414L124.08 434.282Z" fill="white"/>
  <path d="M210.278 390.976C210.278 390.976 247.966 370.409 283.868 347.693C284.005 347.602 283.868 340.449 283.868 340.449C265.539 328.84 177.557 284.871 177.557 284.871L103.166 320.841V328.086L210.278 390.976Z" fill="#DDDDDD"/>
  <path d="M210.278 383.755C210.278 383.755 247.966 363.187 283.868 340.472C285.012 339.626 177.557 277.673 177.557 277.673L103.166 320.887L210.278 383.755Z" fill="white"/>
  <path d="M19.2103 370.089L7.79199 376.579L25.4801 386.429L49.0033 387.411L19.2103 370.089Z" fill="#FFFAFA"/>
  <path d="M49.6894 371.871L92.5481 347.168L83.0062 341.66L40.1475 366.364L49.6894 371.871Z" stroke="#DEDEDE" stroke-width="2.7858" stroke-miterlimit="10" stroke-linecap="round" stroke-linejoin="round"/>
  <path d="M125.728 421.21L132.913 417.074L125.774 412.961L118.589 417.097L125.728 421.21Z" stroke="#DEDEDE" stroke-width="2.7858" stroke-miterlimit="10" stroke-linecap="round" stroke-linejoin="round"/>
  <path d="M162.865 391.616L129.709 410.447" stroke="#DEDEDE" stroke-width="2.7858" stroke-miterlimit="10" stroke-linecap="round" stroke-linejoin="round"/>
  <path d="M154.149 403.797L135.156 414.56" stroke="#DEDEDE" stroke-width="2.7858" stroke-miterlimit="10" stroke-linecap="round" stroke-linejoin="round"/>
  <path d="M113.189 413.875L120.351 409.716L113.235 405.602L106.05 409.761L113.189 413.875Z" stroke="#DEDEDE" stroke-width="2.7858" stroke-miterlimit="10" stroke-linecap="round" stroke-linejoin="round"/>
  <path d="M150.327 384.281L117.171 403.088" stroke="#DEDEDE" stroke-width="2.7858" stroke-miterlimit="10" stroke-linecap="round" stroke-linejoin="round"/>
  <path d="M141.609 396.461L122.617 407.225" stroke="#DEDEDE" stroke-width="2.7858" stroke-miterlimit="10" stroke-linecap="round" stroke-linejoin="round"/>
  <path d="M100.649 406.516L107.811 402.38L100.672 398.266L93.5098 402.403L100.649 406.516Z" stroke="#DEDEDE" stroke-width="2.7858" stroke-miterlimit="10" stroke-linecap="round" stroke-linejoin="round"/>
  <path d="M137.764 376.945L104.607 395.753" stroke="#DEDEDE" stroke-width="2.7858" stroke-miterlimit="10" stroke-linecap="round" stroke-linejoin="round"/>
  <path d="M129.046 389.125L110.076 399.889" stroke="#DEDEDE" stroke-width="2.7858" stroke-miterlimit="10" stroke-linecap="round" stroke-linejoin="round"/>
  <path d="M88.0862 399.18L95.2712 395.044L88.1319 390.931L80.9697 395.067L88.0862 399.18Z" stroke="#DEDEDE" stroke-width="2.7858" stroke-miterlimit="10" stroke-linecap="round" stroke-linejoin="round"/>
  <path d="M125.224 369.609L92.0674 388.417" stroke="#DEDEDE" stroke-width="2.7858" stroke-miterlimit="10" stroke-linecap="round" stroke-linejoin="round"/>
  <path d="M116.506 381.767L97.5361 392.553" stroke="#DEDEDE" stroke-width="2.7858" stroke-miterlimit="10" stroke-linecap="round" stroke-linejoin="round"/>
  <path d="M75.5475 391.845L82.7325 387.708L75.5933 383.595L68.4082 387.731L75.5475 391.845Z" stroke="#DEDEDE" stroke-width="2.7858" stroke-miterlimit="10" stroke-linecap="round" stroke-linejoin="round"/>
  <path d="M112.686 362.273L79.5293 381.081" stroke="#DEDEDE" stroke-width="2.7858" stroke-miterlimit="10" stroke-linecap="round" stroke-linejoin="round"/>
  <path d="M103.967 374.431L84.998 385.195" stroke="#DEDEDE" stroke-width="2.7858" stroke-miterlimit="10" stroke-linecap="round" stroke-linejoin="round"/>
  <path d="M63.0074 384.509L70.1925 380.373L63.0532 376.259L55.8682 380.395L63.0074 384.509Z" stroke="#DEDEDE" stroke-width="2.7858" stroke-miterlimit="10" stroke-linecap="round" stroke-linejoin="round"/>
  <path d="M100.146 354.915L66.9893 373.745" stroke="#DEDEDE" stroke-width="2.7858" stroke-miterlimit="10" stroke-linecap="round" stroke-linejoin="round"/>
  <path d="M91.4269 367.095L72.4346 377.859" stroke="#DEDEDE" stroke-width="2.7858" stroke-miterlimit="10" stroke-linecap="round" stroke-linejoin="round"/>
  <path d="M137.375 320.682L177.854 297.326L168.838 292.138L128.359 315.494L137.375 320.682Z" stroke="#DEDEDE" stroke-width="2.7858" stroke-miterlimit="10" stroke-linecap="round" stroke-linejoin="round"/>
  <path d="M152.111 329.297L192.59 305.942L183.575 300.731L143.096 324.087L152.111 329.297Z" stroke="#DEDEDE" stroke-width="2.7858" stroke-miterlimit="10" stroke-linecap="round" stroke-linejoin="round"/>
  <path d="M166.848 337.889L207.349 314.534L198.334 309.346L157.832 332.702L166.848 337.889Z" stroke="#DEDEDE" stroke-width="2.7858" stroke-miterlimit="10" stroke-linecap="round" stroke-linejoin="round"/>
  <path d="M181.584 346.505L222.086 323.15L213.07 317.939L172.568 341.295L181.584 346.505Z" stroke="#DEDEDE" stroke-width="2.7858" stroke-miterlimit="10" stroke-linecap="round" stroke-linejoin="round"/>
  <path d="M196.319 355.098L236.821 331.742L227.805 326.555L187.304 349.91L196.319 355.098Z" stroke="#DEDEDE" stroke-width="2.7858" stroke-miterlimit="10" stroke-linecap="round" stroke-linejoin="round"/>
  <path d="M211.056 363.713L251.558 340.358L242.542 335.147L202.04 358.503L211.056 363.713Z" stroke="#DEDEDE" stroke-width="2.7858" stroke-miterlimit="10" stroke-linecap="round" stroke-linejoin="round"/>
  <path d="M194.763 371.666C195.825 371.666 196.685 371.185 196.685 370.592C196.685 369.999 195.825 369.518 194.763 369.518C193.701 369.518 192.841 369.999 192.841 370.592C192.841 371.185 193.701 371.666 194.763 371.666Z" fill="#EDE1E1"/>
  <path d="M174.421 380.853C174.421 381.447 175.29 381.927 176.343 381.927C177.396 381.927 178.265 381.447 178.265 380.853C178.265 380.259 177.396 379.779 176.343 379.779C175.29 379.779 174.421 380.259 174.421 380.853Z" fill="#EDE1E1"/>
  <path d="M194.764 370.249C194.764 364.422 190.645 362.068 185.565 365.016C180.485 367.941 176.366 375.048 176.366 380.875" stroke="#433878" stroke-width="2.7858" stroke-miterlimit="10" stroke-linecap="round" stroke-linejoin="round"/>
  <path d="M177.075 360.948C177.075 361.542 177.945 362.022 178.997 362.022C180.05 362.022 180.92 361.542 180.92 360.948C180.92 360.354 180.05 359.874 178.997 359.874C177.922 359.874 177.075 360.354 177.075 360.948Z" fill="#EDE1E1"/>
  <path d="M160.577 372.306C161.639 372.306 162.5 371.825 162.5 371.232C162.5 370.638 161.639 370.157 160.577 370.157C159.516 370.157 158.655 370.638 158.655 371.232C158.655 371.825 159.516 372.306 160.577 372.306Z" fill="#EDE1E1"/>
  <path d="M178.998 360.605C178.998 354.778 174.879 352.424 169.799 355.372C164.719 358.297 160.601 365.404 160.601 371.231" stroke="#433878" stroke-width="2.7858" stroke-miterlimit="10" stroke-linecap="round" stroke-linejoin="round"/>
  <path d="M163.208 352.378C164.27 352.378 165.13 351.897 165.13 351.304C165.13 350.711 164.27 350.23 163.208 350.23C162.147 350.23 161.286 350.711 161.286 351.304C161.286 351.897 162.147 352.378 163.208 352.378Z" fill="#EDE1E1"/>
  <path d="M144.788 362.662C145.85 362.662 146.71 362.181 146.71 361.588C146.71 360.995 145.85 360.514 144.788 360.514C143.727 360.514 142.866 360.995 142.866 361.588C142.866 362.181 143.727 362.662 144.788 362.662Z" fill="#EDE1E1"/>
  <path d="M163.209 350.961C163.209 345.134 159.09 342.78 154.01 345.728C148.93 348.653 144.812 355.76 144.812 361.588" stroke="#433878" stroke-width="2.7858" stroke-miterlimit="10" stroke-linecap="round" stroke-linejoin="round"/>
  <path d="M147.008 342.871C148.07 342.871 148.93 342.391 148.93 341.797C148.93 341.204 148.07 340.723 147.008 340.723C145.947 340.723 145.086 341.204 145.086 341.797C145.086 342.391 145.947 342.871 147.008 342.871Z" fill="#EDE1E1"/>
  <path d="M128.588 353.132C129.65 353.132 130.51 352.651 130.51 352.058C130.51 351.465 129.65 350.984 128.588 350.984C127.527 350.984 126.666 351.465 126.666 352.058C126.666 352.651 127.527 353.132 128.588 353.132Z" fill="#EDE1E1"/>
  <path d="M147.009 341.432C147.009 335.604 142.89 333.25 137.81 336.198C132.73 339.146 128.611 346.231 128.611 352.058" stroke="#433878" stroke-width="2.7858" stroke-miterlimit="10" stroke-linecap="round" stroke-linejoin="round"/>
  <path d="M131.105 333.639C132.166 333.639 133.027 333.158 133.027 332.565C133.027 331.972 132.166 331.491 131.105 331.491C130.043 331.491 129.183 331.972 129.183 332.565C129.183 333.158 130.043 333.639 131.105 333.639Z" fill="#EDE1E1"/>
  <path d="M110.763 342.849C110.763 343.443 111.632 343.923 112.685 343.923C113.737 343.923 114.607 343.443 114.607 342.849C114.607 342.254 113.737 341.774 112.685 341.774C111.632 341.752 110.763 342.254 110.763 342.849Z" fill="#EDE1E1"/>
  <path d="M131.105 332.222C131.105 326.395 126.987 324.041 121.907 326.989C116.827 329.914 112.708 337.021 112.708 342.849" stroke="#433878" stroke-width="2.7858" stroke-miterlimit="10" stroke-linecap="round" stroke-linejoin="round"/>
  <path opacity="0.34" d="M243.961 318.899C244.075 319.516 244.029 320.11 243.869 320.636C243.869 320.659 243.869 320.659 243.869 320.681C243.503 321.87 242.519 322.738 241.26 322.83L239.91 322.944L167.03 328.68C166.618 328.703 166.183 328.657 165.794 328.52L157.122 327.446L151.768 326.532L156.527 325.115L164.605 321.733C164.948 321.55 165.337 321.413 165.772 321.39L234.876 315.951L239.979 315.539C240.322 315.517 240.665 315.539 240.986 315.631C241.215 315.677 241.421 315.768 241.627 315.859C241.833 315.951 242.038 316.065 242.221 316.202C242.405 316.339 242.588 316.499 242.771 316.659C242.862 316.751 242.931 316.842 243.022 316.934C243.503 317.459 243.846 318.145 243.961 318.899Z" fill="#727272"/>
  <path d="M159.709 323.332C159.937 325.32 161.676 326.829 163.576 326.692L240.712 321.161C242.611 321.024 244.007 319.287 243.778 317.299C243.549 315.311 241.81 313.803 239.911 313.94L162.775 319.47C160.853 319.607 159.48 321.344 159.709 323.332Z" fill="#00AF46"/>
  <path d="M159.709 323.332L243.778 317.299C243.549 315.311 241.81 313.803 239.911 313.94L162.775 319.47C160.853 319.607 159.48 321.344 159.709 323.332Z" fill="#00D254"/>
  <path d="M163.575 326.692L153.416 325.458L152.958 323.127L161.539 319.813L164.124 320.567L162.889 322.441L164.651 323.904L163.324 325.092L165.177 325.892L163.575 326.692Z" fill="#D4B3B3"/>
  <path d="M153.21 324.406L152.958 323.127L161.539 319.813L164.125 320.567L162.889 322.441L164.651 323.904L153.21 324.406Z" fill="#F7D1D2"/>
  <path d="M147.924 324.521L153.416 325.458L152.958 323.127L147.924 324.521Z" fill="#56446B"/>
  <path d="M243.755 317.299C243.984 319.287 242.588 321.024 240.689 321.161L235.358 321.55C235.769 319.745 235.861 317.208 234.557 314.328L239.865 313.94C241.81 313.803 243.549 315.311 243.755 317.299Z" fill="#7C64BA"/>
  <path d="M233.687 321.664C233.687 321.664 234.968 317.711 232.451 314.466" stroke="#FFFAFA" stroke-width="1.8831" stroke-miterlimit="10" stroke-linecap="round" stroke-linejoin="round"/>
</svg>
